<svg width="1799" height="720" xmlns="http://www.w3.org/2000/svg" xmlns:xlink="http://www.w3.org/1999/xlink" overflow="hidden"><defs><filter id="fx0" x="-10%" y="-10%" width="120%" height="120%" filterUnits="userSpaceOnUse" primitiveUnits="userSpaceOnUse"><feComponentTransfer color-interpolation-filters="sRGB"><feFuncR type="discrete" tableValues="0 0"/><feFuncG type="discrete" tableValues="0 0"/><feFuncB type="discrete" tableValues="0 0"/><feFuncA type="linear" slope="0.431373" intercept="0"/></feComponentTransfer><feGaussianBlur stdDeviation="4.43118 4.43118"/></filter><filter id="fx1" x="-10%" y="-10%" width="120%" height="120%" filterUnits="userSpaceOnUse" primitiveUnits="userSpaceOnUse"><feComponentTransfer color-interpolation-filters="sRGB"><feFuncR type="discrete" tableValues="0 0"/><feFuncG type="discrete" tableValues="0 0"/><feFuncB type="discrete" tableValues="0 0"/><feFuncA type="linear" slope="0.431373" intercept="0"/></feComponentTransfer><feGaussianBlur stdDeviation="4.43118 4.43118"/></filter><filter id="fx2" x="-10%" y="-10%" width="120%" height="120%" filterUnits="userSpaceOnUse" primitiveUnits="userSpaceOnUse"><feComponentTransfer color-interpolation-filters="sRGB"><feFuncR type="discrete" tableValues="0 0"/><feFuncG type="discrete" tableValues="0 0"/><feFuncB type="discrete" tableValues="0 0"/><feFuncA type="linear" slope="0.431373" intercept="0"/></feComponentTransfer><feGaussianBlur stdDeviation="4.43118 4.43118"/></filter><filter id="fx3" x="-10%" y="-10%" width="120%" height="120%" filterUnits="userSpaceOnUse" primitiveUnits="userSpaceOnUse"><feComponentTransfer color-interpolation-filters="sRGB"><feFuncR type="discrete" tableValues="0 0"/><feFuncG type="discrete" tableValues="0 0"/><feFuncB type="discrete" tableValues="0 0"/><feFuncA type="linear" slope="0.431373" intercept="0"/></feComponentTransfer><feGaussianBlur stdDeviation="4.43118 4.43118"/></filter><filter id="fx4" x="-10%" y="-10%" width="120%" height="120%" filterUnits="userSpaceOnUse" primitiveUnits="userSpaceOnUse"><feComponentTransfer color-interpolation-filters="sRGB"><feFuncR type="discrete" tableValues="0 0"/><feFuncG type="discrete" tableValues="0 0"/><feFuncB type="discrete" tableValues="0 0"/><feFuncA type="linear" slope="0.431373" intercept="0"/></feComponentTransfer><feGaussianBlur stdDeviation="1.76917 1.76917"/></filter><clipPath id="clip5"><rect x="297" y="145" width="1799" height="720"/></clipPath><clipPath id="clip6"><rect x="225" y="178" width="232" height="268"/></clipPath><clipPath id="clip7"><rect x="0" y="0" width="668" height="723"/></clipPath><clipPath id="clip8"><rect x="207" y="175" width="300" height="323"/></clipPath><clipPath id="clip9"><rect x="0" y="0" width="704" height="723"/></clipPath><clipPath id="clip10"><rect x="225" y="178" width="235" height="268"/></clipPath><clipPath id="clip11"><rect x="0" y="0" width="668" height="723"/></clipPath><clipPath id="clip12"><rect x="204" y="175" width="227" height="273"/></clipPath><clipPath id="clip13"><rect x="0" y="0" width="636" height="723"/></clipPath><clipPath id="clip14"><rect x="58" y="40" width="1693" height="97"/></clipPath><clipPath id="clip15"><rect x="0" y="0" width="1801" height="187"/></clipPath></defs><g clip-path="url(#clip5)" transform="translate(-297 -145)"><g clip-path="url(#clip6)" filter="url(#fx0)" transform="translate(496 144)"><g clip-path="url(#clip7)"><path d="M27.39 0 27.39-231 127.38-231C148.06-231 165.88-227.645 180.84-220.935 195.8-214.225 207.35-204.6 215.49-192.06 223.63-179.52 227.7-164.56 227.7-147.18 227.7-130.02 223.63-115.17 215.49-102.63 207.35-90.09 195.8-80.465 180.84-73.755 165.88-67.045 148.06-63.69 127.38-63.69L57.09-63.69 80.85-87.78 80.85 0ZM80.85-81.84 57.09-107.25 124.41-107.25C140.91-107.25 153.23-110.77 161.37-117.81 169.51-124.85 173.58-134.64 173.58-147.18 173.58-159.94 169.51-169.84 161.37-176.88 153.23-183.92 140.91-187.44 124.41-187.44L57.09-187.44 80.85-212.85Z" fill="#7370D8" transform="matrix(1 0 0 1 213.046 428)"/></g></g><text fill="#7370D8" font-family="Montserrat,Montserrat_MSFontService,sans-serif" font-weight="700" font-size="330" transform="matrix(1 0 0 1 699.646 562)">P</text><g clip-path="url(#clip8)" filter="url(#fx1)" transform="translate(683 144)"><g clip-path="url(#clip9)"><path d="M138.93 3.63C121.11 3.63 104.445 0.715 88.935-5.115 73.425-10.945 60.005-19.25 48.675-30.03 37.345-40.81 28.6-53.515 22.44-68.145 16.28-82.775 13.09-98.56 12.87-115.5 13.09-132.66 16.28-148.5 22.44-163.02 28.6-177.54 37.4-190.19 48.84-200.97 60.28-211.75 73.7-220.11 89.1-226.05 104.5-231.99 121.11-234.85 138.93-234.63 157.41-234.85 174.295-231.99 189.585-226.05 204.875-220.11 218.185-211.805 229.515-201.135 240.845-190.465 249.645-177.87 255.915-163.35 262.185-148.83 265.32-132.88 265.32-115.5 265.54-98.34 262.46-82.445 256.08-67.815 249.7-53.185 240.845-40.535 229.515-29.865 218.185-19.195 204.875-10.89 189.585-4.95 174.295 0.99 157.41 3.85 138.93 3.63ZM214.83 53.13C205.81 53.13 197.285 52.14 189.255 50.16 181.225 48.18 173.305 44.99 165.495 40.59 157.685 36.19 149.545 30.25 141.075 22.77 132.605 15.29 123.42 6.05 113.52-4.95L169.62-19.14C175.56-11 181.06-4.51 186.12 0.33 191.18 5.17 196.075 8.58 200.805 10.56 205.535 12.54 210.54 13.64 215.82 13.86 229.9 13.64 242.44 7.81 253.44-3.63L277.2 24.75C261.58 43.67 240.79 53.13 214.83 53.13ZM138.93-41.25C149.49-41.47 159.115-43.34 167.805-46.86 176.495-50.38 184.14-55.44 190.74-62.04 197.34-68.64 202.455-76.45 206.085-85.47 209.715-94.49 211.53-104.5 211.53-115.5 211.53-126.5 209.715-136.565 206.085-145.695 202.455-154.825 197.34-162.635 190.74-169.125 184.14-175.615 176.495-180.62 167.805-184.14 159.115-187.66 149.49-189.53 138.93-189.75 128.81-189.53 119.35-187.66 110.55-184.14 101.75-180.62 94.105-175.615 87.615-169.125 81.125-162.635 76.065-154.825 72.435-145.695 68.805-136.565 66.99-126.5 66.99-115.5 66.99-104.5 68.805-94.49 72.435-85.47 76.065-76.45 81.125-68.64 87.615-62.04 94.105-55.44 101.75-50.38 110.55-46.86 119.35-43.34 128.81-41.47 138.93-41.25Z" fill="#FFFFFF" transform="matrix(1 0 0 1 212.966 428)"/></g></g><text fill="#FFFFFF" font-family="Montserrat,Montserrat_MSFontService,sans-serif" font-weight="700" font-size="330" transform="matrix(1 0 0 1 886.566 562)">Q</text><g clip-path="url(#clip10)" filter="url(#fx2)" transform="translate(941 144)"><g clip-path="url(#clip11)"><path d="M27.39 0 27.39-231 127.38-231C148.06-231 165.88-227.645 180.84-220.935 195.8-214.225 207.35-204.6 215.49-192.06 223.63-179.52 227.7-164.56 227.7-147.18 227.7-130.02 223.63-115.225 215.49-102.795 207.35-90.365 195.8-80.85 180.84-74.25 165.88-67.65 148.06-64.35 127.38-64.35L57.09-64.35 80.85-87.78 80.85 0ZM174.24 0 116.49-83.82 173.58-83.82 231.99 0ZM80.85-81.84 57.09-106.92 124.41-106.92C140.91-106.92 153.23-110.495 161.37-117.645 169.51-124.795 173.58-134.64 173.58-147.18 173.58-159.94 169.51-169.84 161.37-176.88 153.23-183.92 140.91-187.44 124.41-187.44L57.09-187.44 80.85-212.85Z" fill="#7370D8" transform="matrix(1 0 0 1 212.945 428)"/></g></g><text fill="#7370D8" font-family="Montserrat,Montserrat_MSFontService,sans-serif" font-weight="700" font-size="330" transform="matrix(1 0 0 1 1144.55 562)">R</text><g clip-path="url(#clip12)" filter="url(#fx3)" transform="translate(1152 144)"><g clip-path="url(#clip13)"><path d="M103.29 3.96C84.81 3.96 67.1 1.485 50.16-3.465 33.22-8.415 19.58-14.85 9.24-22.77L27.39-63.03C37.29-55.99 49.005-50.215 62.535-45.705 76.065-41.195 89.76-38.94 103.62-38.94 114.18-38.94 122.705-39.985 129.195-42.075 135.685-44.165 140.47-47.08 143.55-50.82 146.63-54.56 148.17-58.85 148.17-63.69 148.17-69.85 145.75-74.745 140.91-78.375 136.07-82.005 129.69-84.975 121.77-87.285 113.85-89.595 105.105-91.795 95.535-93.885 85.965-95.975 76.395-98.56 66.825-101.64 57.255-104.72 48.51-108.68 40.59-113.52 32.67-118.36 26.235-124.74 21.285-132.66 16.335-140.58 13.86-150.7 13.86-163.02 13.86-176.22 17.435-188.265 24.585-199.155 31.735-210.045 42.515-218.735 56.925-225.225 71.335-231.715 89.43-234.96 111.21-234.96 125.73-234.96 140.03-233.255 154.11-229.845 168.19-226.435 180.62-221.32 191.4-214.5L174.9-173.91C164.12-180.07 153.34-184.635 142.56-187.605 131.78-190.575 121.22-192.06 110.88-192.06 100.54-192.06 92.07-190.85 85.47-188.43 78.87-186.01 74.14-182.875 71.28-179.025 68.42-175.175 66.99-170.72 66.99-165.66 66.99-159.72 69.41-154.935 74.25-151.305 79.09-147.675 85.47-144.76 93.39-142.56 101.31-140.36 110.055-138.16 119.625-135.96 129.195-133.76 138.765-131.23 148.335-128.37 157.905-125.51 166.65-121.66 174.57-116.82 182.49-111.98 188.925-105.6 193.875-97.68 198.825-89.76 201.3-79.75 201.3-67.65 201.3-54.67 197.67-42.79 190.41-32.01 183.15-21.23 172.315-12.54 157.905-5.94 143.495 0.66 125.29 3.96 103.29 3.96Z" fill="#FFFFFF" transform="matrix(1 0 0 1 212.703 428)"/></g></g><text fill="#FFFFFF" font-family="Montserrat,Montserrat_MSFontService,sans-serif" font-weight="700" font-size="330" transform="matrix(1 0 0 1 1355.3 562)">S</text><path d="M623 626 1727.33 626" stroke="#7370D8" stroke-width="10.3125" stroke-miterlimit="8" fill="none" fill-rule="evenodd"/><g clip-path="url(#clip14)" filter="url(#fx4)" transform="translate(296 612)"><g clip-path="url(#clip15)"><path d="M10.624 0 10.624-59.677 31.623-59.677C36.5572-59.677 40.8196-58.8727 44.4102-57.2642 48.0008-55.6556 50.7513-53.3606 52.6615-50.379 54.5718-47.3975 55.527-43.8292 55.527-39.674 55.527-35.4687 54.5705-31.8586 52.6577-28.8438 50.7448-25.829 47.996-23.5188 44.4115-21.9133 40.8269-20.3078 36.5641-19.505 31.623-19.505L12.201-19.505 15.106-22.493 15.106 0ZM13.446-22.493 13.861-22.078 31.789-22.078C38.5198-22.078 43.7023-23.6189 47.3366-26.7007 50.9709-29.7825 52.788-34.1069 52.788-39.674 52.788-45.2004 50.9743-49.487 47.347-52.5338 43.7196-55.5806 38.5336-57.104 31.789-57.104L13.861-57.104 13.446-56.855ZM85.9854 0.249C81.57 0.249 77.6664-0.71393 74.2746-2.63979 70.8829-4.56565 68.2102-7.25234 66.2567-10.6999 64.3032-14.1474 63.3264-18.0508 63.3264-22.41 63.3264-26.7908 64.2258-30.6659 66.0246-34.0352 67.8233-37.4045 70.3269-40.0719 73.5354-42.0375 76.7439-44.0032 80.3682-44.986 84.4084-44.986 88.3855-44.986 91.9768-44.033 95.1822-42.127 98.3876-40.2211 100.893-37.5912 102.699-34.2375 104.505-30.8838 105.407-27.0519 105.407-22.742 105.407-22.6313 105.407-22.5068 105.407-22.3685 105.407-22.2302 105.407-21.829 105.407-21.165L65.1524-21.165 65.1524-24.983 103.913-24.983 101.174-22.078C101.174-26.0732 100.446-29.4356 98.9879-32.1651 97.5302-34.8946 95.5378-37.0359 93.0106-38.5892 90.4834-40.1424 87.616-40.919 84.4084-40.919 81.1922-40.919 78.3202-40.1424 75.7926-38.5892 73.265-37.0359 71.2747-34.8985 69.8218-32.1768 68.3689-29.4551 67.6424-26.3378 67.6424-22.825L67.6424-22.327C67.6424-18.6689 68.4385-15.4471 70.0306-12.6614 71.6227-9.8757 73.7892-7.70538 76.5299-6.15043 79.2706-4.59548 82.4225-3.818 85.9854-3.818 88.6846-3.818 91.2308-4.31773 93.624-5.31719 96.0172-6.31664 98.2046-7.97492 100.186-10.292L102.834-7.63989C100.681-4.8542 98.1512-2.84297 95.2457-1.60618 92.3403-0.369393 89.2535 0.249 85.9854 0.249ZM129.454 0.249C125.67 0.249 122.76-0.829135 120.723-2.98541 118.687-5.14168 117.668-8.01987 117.668-11.62L117.668-54.116 122.067-54.116 122.067-12.035C122.067-9.2692 122.71-7.19441 123.995-5.81065 125.28-4.42688 127.183-3.735 129.703-3.735 132.294-3.735 134.66-4.62033 136.802-6.391L138.916-3.43153C137.61-2.04301 136.128-1.08246 134.471-0.549875 132.814-0.0172917 131.142 0.249 129.454 0.249ZM109.534-40.67 109.534-44.654 136.26-44.654 136.26-40.67ZM149.578 0 149.578-44.654 153.892-44.654 153.977 0ZM151.736-54.365C150.774-54.365 149.939-54.7195 149.23-55.4284 148.521-56.1374 148.167-56.9449 148.167-57.851 148.167-58.8271 148.521-59.6521 149.23-60.3261 149.939-61 150.774-61.337 151.736-61.337 152.751-61.337 153.6-60.9961 154.282-60.3144 154.964-59.6327 155.305-58.8392 155.305-57.934 155.305-56.989 154.964-56.1579 154.282-55.4408 153.6-54.7236 152.751-54.365 151.736-54.365ZM188.122 0.249C183.872 0.249 180.065-0.714146 176.701-2.64044 173.337-4.56673 170.692-7.23959 168.767-10.659 166.841-14.0784 165.878-17.9954 165.878-22.41 165.878-26.7891 166.837-30.6806 168.754-34.0845 170.67-37.4883 173.316-40.1562 176.689-42.0881 180.063-44.02 183.874-44.986 188.122-44.986 191.508-44.986 194.648-44.3347 197.542-43.0323 200.435-41.7298 202.884-39.6165 204.888-36.6925L201.825-34.279C199.959-36.6531 197.882-38.3395 195.596-39.3381 193.309-40.3367 190.818-40.836 188.122-40.836 184.727-40.836 181.682-40.0698 178.988-38.5373 176.293-37.0048 174.168-34.8537 172.612-32.084 171.056-29.3143 170.277-26.0897 170.277-22.41 170.277-18.6949 171.059-15.446 172.623-12.6633 174.186-9.88067 176.314-7.71079 179.006-6.15367 181.698-4.59656 184.737-3.818 188.122-3.818 190.815-3.818 193.302-4.32962 195.585-5.35285 197.868-6.37608 199.942-8.0778 201.806-10.458L204.888-8.06786C202.86-5.06084 200.404-2.92294 197.521-1.65416 194.638-0.385388 191.505 0.249 188.122 0.249ZM216.036 0 216.036-44.654 220.351-44.654 220.435 0ZM218.194-54.365C217.232-54.365 216.397-54.7195 215.688-55.4284 214.979-56.1374 214.625-56.9449 214.625-57.851 214.625-58.8271 214.979-59.6521 215.688-60.3261 216.397-61 217.232-61.337 218.194-61.337 219.21-61.337 220.059-60.9961 220.74-60.3144 221.422-59.6327 221.763-58.8392 221.763-57.934 221.763-56.989 221.422-56.1579 220.74-55.4408 220.059-54.7236 219.21-54.365 218.194-54.365ZM254.332 0.249C250.069 0.249 246.301-0.713065 243.027-2.63719 239.753-4.56132 237.153-7.23418 235.226-10.6558 233.3-14.0774 232.337-17.9954 232.337-22.41 232.337-26.7917 233.308-30.6678 235.25-34.0384 237.193-37.409 239.807-40.0749 243.095-42.0363 246.383-43.9976 250.124-44.9492 254.319-44.8913 258.533-44.9492 262.307-44.0008 265.643-42.046 268.978-40.0912 271.592-37.4205 273.486-34.0339 275.38-30.6473 276.327-26.7727 276.327-22.41 276.327-18.062 275.377-14.1612 273.477-10.7076 271.577-7.25407 268.96-4.56457 265.627-2.63914 262.294-0.713714 258.529 0.249 254.332 0.249ZM255.079-3.818C257.957-3.818 260.726-4.59483 263.385-6.14848 266.045-7.70214 268.134-9.89105 269.652-12.7152 271.171-15.5394 271.957-18.7666 272.011-22.397 271.957-26.0637 271.175-29.2891 269.663-32.073 268.152-34.857 266.064-37.0141 263.4-38.5444 260.736-40.0747 257.718-40.8663 254.345-40.919 251.012-40.8663 248.021-40.0717 245.373-38.5353 242.725-36.999 240.623-34.8472 239.068-32.0801 237.513-29.313 236.736-26.0897 236.736-22.41 236.736-18.7485 237.519-15.5104 239.086-12.6958 240.652-9.88111 242.741-7.68269 245.352-6.1005 247.962-4.51831 251.205-3.75748 255.079-3.818ZM309.388-44.986C313.073-44.986 316.272-44.2567 318.985-42.7982 321.697-41.3396 323.806-39.2078 325.309-36.4026 326.813-33.5975 327.565-30.1783 327.565-26.145L327.565 0 323.166 0 323.166-25.979C323.166-30.895 321.945-34.6002 319.503-37.0945 317.06-39.5888 313.606-40.836 309.139-40.836 305.692-40.836 302.732-40.1519 300.259-38.7837 297.786-37.4155 295.895-35.4749 294.586-32.962 293.277-30.4491 292.622-27.4851 292.622-24.07L292.622 0 288.223 0 288.223-44.654 292.539-44.654 292.539-30.959 290.547-32.4997C291.947-36.4145 294.257-39.4743 297.477-41.679 300.697-43.8836 304.668-44.986 309.388-44.986ZM361.558 0.249C357.143 0.249 353.239-0.71393 349.848-2.63979 346.456-4.56565 343.783-7.25234 341.83-10.6999 339.876-14.1474 338.899-18.0508 338.899-22.41 338.899-26.7908 339.799-30.6659 341.597-34.0352 343.396-37.4045 345.9-40.0719 349.108-42.0375 352.317-44.0032 355.941-44.986 359.981-44.986 363.958-44.986 367.55-44.033 370.755-42.127 373.961-40.2211 376.466-37.5912 378.272-34.2375 380.077-30.8838 380.98-27.0519 380.98-22.742 380.98-22.6313 380.98-22.5068 380.98-22.3685 380.98-22.2302 380.98-21.829 380.98-21.165L340.725-21.165 340.725-24.983 379.486-24.983 376.747-22.078C376.747-26.0732 376.018-29.4356 374.561-32.1651 373.103-34.8946 371.111-37.0359 368.583-38.5892 366.056-40.1424 363.189-40.919 359.981-40.919 356.765-40.919 353.893-40.1424 351.366-38.5892 348.838-37.0359 346.848-34.8985 345.395-32.1768 343.942-29.4551 343.215-26.3378 343.215-22.825L343.215-22.327C343.215-18.6689 344.011-15.4471 345.604-12.6614 347.196-9.8757 349.362-7.70538 352.103-6.15043 354.844-4.59548 357.995-3.818 361.558-3.818 364.258-3.818 366.804-4.31773 369.197-5.31719 371.59-6.31664 373.777-7.97492 375.759-10.292L378.407-7.63989C376.254-4.8542 373.724-2.84297 370.819-1.60618 367.913-0.369393 364.826 0.249 361.558 0.249ZM403.699 0.249C400.042 0.249 396.614-0.307792 393.416-1.42137 390.218-2.53496 387.698-4.11671 385.854-6.16664L387.811-9.296C389.857-7.71986 392.211-6.399 394.875-5.3334 397.539-4.2678 400.508-3.735 403.782-3.735 408.39-3.735 411.673-4.49735 413.629-6.02204 415.586-7.54673 416.564-9.52338 416.564-11.952 416.564-13.6544 416.097-14.9968 415.164-15.9794 414.23-16.962 412.95-17.7419 411.325-18.319 409.699-18.8961 407.875-19.3626 405.851-19.7183 403.828-20.0741 401.73-20.4924 399.558-20.9731 397.385-21.4538 395.394-22.1173 393.584-22.9638 391.773-23.8102 390.295-25.0171 389.15-26.5846 388.004-28.1521 387.431-30.2189 387.431-32.785 387.431-34.9741 388.037-36.9845 389.248-38.8161 390.459-40.6477 392.294-42.1339 394.751-43.2748 397.209-44.4156 400.302-44.986 404.031-44.986 406.765-44.986 409.524-44.5699 412.307-43.7378 415.091-42.9056 417.423-41.6452 419.303-39.9567L417.25-36.852C415.145-38.2837 412.986-39.3195 410.774-39.9593 408.562-40.5991 406.287-40.919 403.948-40.919 399.676-40.919 396.602-40.1333 394.727-38.5619 392.851-36.9905 391.913-35.0926 391.913-32.868 391.913-31.0368 392.383-29.5899 393.322-28.5274 394.261-27.4648 395.551-26.6419 397.193-26.0588 398.836-25.4756 400.709-24.9875 402.814-24.5946 404.919-24.2016 406.997-23.7862 409.049-23.3483 411.1-22.9104 413.025-22.2857 414.823-21.4743 416.621-20.6629 418.094-19.502 419.242-17.9915 420.389-16.4811 420.963-14.4679 420.963-11.952 420.963-9.55537 420.292-7.41726 418.949-5.53766 417.606-3.65805 415.67-2.22371 413.139-1.23462 410.609-0.245542 407.462 0.249 403.699 0.249ZM427.22 11.703 431.241-2.988 431.951 0.249C430.333 0.249 429.168-0.0897005 428.455-0.767101 427.742-1.4445 427.386-2.29547 427.386-3.32 427.386-4.2892 427.724-5.1125 428.402-5.7899 429.079-6.4673 429.93-6.806 430.955-6.806 432.047-6.806 432.914-6.43034 433.558-5.67901 434.202-4.92769 434.524-4.14135 434.524-3.32 434.524-2.94477 434.496-2.6199 434.441-2.3454 434.385-2.07089 434.326-1.74819 434.262-1.37728 434.198-1.00637 434.113-0.584891 434.009-0.112828L430.835 11.703ZM495.003 0.249C490.623 0.249 486.561-0.488706 482.816-1.96412 479.071-3.43953 475.799-5.54846 472.999-8.29092 470.2-11.0334 468.049-14.2317 466.548-17.8858 465.046-21.54 464.267-25.5381 464.21-29.88 464.267-34.1917 465.045-38.1713 466.543-41.819 468.042-45.4667 470.198-48.6415 473.014-51.3433 475.829-54.0451 479.099-56.1633 482.822-57.698 486.546-59.2326 490.602-59.9714 494.99-59.9143 499.443-59.9714 503.527-59.2341 507.244-57.7025 510.96-56.1709 514.217-54.0494 517.014-51.3381 519.811-48.6268 521.974-45.4447 523.503-41.7918 525.032-38.1389 525.796-33.8917 525.796-29.05 525.844-25.2778 525.086-21.5575 523.522-17.8891 521.958-14.2207 519.778-11.031 516.982-8.3201 514.185-5.6092 510.932-3.48946 507.222-1.96087 503.511-0.432292 499.438 0.304333 495.003 0.249ZM514.093 10.624C512.438 10.624 510.838 10.3949 509.293 9.93666 507.747 9.47843 506.157 8.79022 504.521 7.87203 502.885 6.95384 501.24 5.80784 499.586 4.43402 497.932 3.06019 496.1 1.05479 494.09-1.58219L498.541-2.739C500.548-0.493677 502.43 1.3053 504.189 2.65794 505.947 4.01059 507.652 5.0014 509.302 5.63038 510.953 6.25937 512.555 6.5998 514.109 6.65167 518.519 6.5998 522.465 4.63157 525.948 0.747L528.369 3.42375C524.591 8.22392 519.832 10.624 514.093 10.624ZM495.003-3.818C498.755-3.818 502.241-4.47508 505.46-5.78925 508.679-7.10342 511.477-8.9359 513.854-11.2867 516.231-13.6375 518.083-16.3953 519.408-19.5601 520.734-22.7249 521.397-26.1649 521.397-29.88 521.397-33.5648 520.737-36.9823 519.418-40.1324 518.099-43.2825 516.252-46.0308 513.879-48.3773 511.506-50.7238 508.702-52.5574 505.468-53.878 502.233-55.1987 498.745-55.859 495.003-55.859 491.308-55.859 487.847-55.2002 484.62-53.8826 481.393-52.5649 478.587-50.7275 476.204-48.3702 473.82-46.0129 471.972-43.2681 470.66-40.1357 469.348-37.0033 468.692-33.8614 468.692-30.71 468.629-26.4294 469.27-22.7158 470.615-19.5692 471.96-16.4225 473.828-13.6663 476.221-11.3003 478.614-8.93439 481.416-7.09585 484.627-5.78471 487.839-4.47357 491.297-3.818 495.003-3.818ZM556.192 0.249C552.327 0.249 549.004-0.460823 546.222-1.88047 543.441-3.30011 541.294-5.41942 539.783-8.2384 538.272-11.0574 537.517-14.5086 537.517-18.592L537.517-44.654 541.916-44.654 541.916-18.758C541.916-13.7979 543.166-10.0679 545.666-7.56791 548.166-5.06797 551.702-3.818 556.275-3.818 559.541-3.818 562.363-4.51075 564.742-5.89624 567.121-7.28174 568.946-9.24693 570.219-11.7918 571.492-14.3367 572.128-17.2951 572.128-20.667L572.128-44.654 576.527-44.654 576.527 0 572.211 0 572.211-13.695 574.203-12.131C572.891-8.22565 570.671-5.18599 567.54-3.01199 564.41-0.837997 560.627 0.249 556.192 0.249ZM610.777 0.249C606.362 0.249 602.458-0.71393 599.066-2.63979 595.674-4.56565 593.002-7.25234 591.048-10.6999 589.095-14.1474 588.118-18.0508 588.118-22.41 588.118-26.7908 589.017-30.6659 590.816-34.0352 592.615-37.4045 595.119-40.0719 598.327-42.0375 601.536-44.0032 605.16-44.986 609.2-44.986 613.177-44.986 616.768-44.033 619.974-42.127 623.179-40.2211 625.685-37.5912 627.491-34.2375 629.296-30.8838 630.199-27.0519 630.199-22.742 630.199-22.6313 630.199-22.5068 630.199-22.3685 630.199-22.2302 630.199-21.829 630.199-21.165L589.944-21.165 589.944-24.983 628.705-24.983 625.966-22.078C625.966-26.0732 625.237-29.4356 623.78-32.1651 622.322-34.8946 620.329-37.0359 617.802-38.5892 615.275-40.1424 612.408-40.919 609.2-40.919 605.984-40.919 603.112-40.1424 600.584-38.5892 598.057-37.0359 596.066-34.8985 594.613-32.1768 593.161-29.4551 592.434-26.3378 592.434-22.825L592.434-22.327C592.434-18.6689 593.23-15.4471 594.822-12.6614 596.414-9.8757 598.581-7.70538 601.322-6.15043 604.062-4.59548 607.214-3.818 610.777-3.818 613.476-3.818 616.022-4.31773 618.416-5.31719 620.809-6.31664 622.996-7.97492 624.978-10.292L627.626-7.63989C625.472-4.8542 622.943-2.84297 620.037-1.60618 617.132-0.369393 614.045 0.249 610.777 0.249ZM634.907 16.351C633.085 16.351 631.336 16.1007 629.658 15.6001 627.98 15.0995 626.521 14.1126 625.279 12.6393L627.38 9.711C629.522 11.4817 631.976 12.367 634.741 12.367 637.131 12.367 638.959 11.6712 640.227 10.2797 641.494 8.88813 642.128 6.78957 642.128 3.984L642.128-44.654 646.527-44.654 646.527 4.316C646.527 7.90056 645.522 10.8025 643.513 13.0219 641.504 15.2413 638.635 16.351 634.907 16.351ZM644.286-54.365C643.325-54.365 642.489-54.7195 641.78-55.4284 641.071-56.1374 640.717-56.9449 640.717-57.851 640.717-58.8271 641.071-59.6521 641.78-60.3261 642.489-61 643.325-61.337 644.286-61.337 645.302-61.337 646.151-60.9961 646.832-60.3144 647.514-59.6327 647.855-58.8392 647.855-57.934 647.855-56.989 647.514-56.1579 646.832-55.4408 646.151-54.7236 645.302-54.365 644.286-54.365ZM690.874 0 690.874-10.8211 690.791-12.3203 690.791-28.718C690.791-32.7409 689.738-35.7801 687.631-37.8357 685.524-39.8912 682.428-40.919 678.341-40.919 675.311-40.919 672.54-40.3979 670.027-39.3556 667.514-38.3134 665.126-36.8978 662.864-35.109L660.662-37.9777C662.938-40.2948 665.628-42.0421 668.73-43.2197 671.832-44.3972 675.063-44.986 678.424-44.986 683.804-44.986 687.943-43.5953 690.842-40.8139 693.741-38.0326 695.19-34.0006 695.19-28.718L695.19 0ZM675.685 0.249C672.295 0.249 669.388-0.276667 666.964-1.328 664.54-2.37933 662.676-3.89776 661.372-5.88327 660.069-7.86879 659.417-10.1407 659.417-12.699 659.417-14.9184 659.949-16.9884 661.013-18.9091 662.076-20.8298 663.829-22.3637 666.271-23.511 668.712-24.6583 671.933-25.232 675.934-25.232L693.447-25.232 693.447-21.414 675.934-21.414C671.44-21.414 668.296-20.606 666.504-18.9901 664.712-17.3742 663.816-15.3325 663.816-12.865 663.816-10.0395 664.862-7.79768 666.954-6.13941 669.045-4.48113 672.011-3.652 675.851-3.652 679.65-3.652 682.778-4.50188 685.236-6.20166 687.694-7.90143 689.792-10.5375 691.53-14.11L693.364-11.4929C692.164-7.84696 690.053-4.97849 687.033-2.88749 684.013-0.796497 680.23 0.249 675.685 0.249ZM722.241 0.249C718.584 0.249 715.156-0.307792 711.958-1.42137 708.76-2.53496 706.239-4.11671 704.396-6.16664L706.353-9.296C708.398-7.71986 710.753-6.399 713.417-5.3334 716.081-4.2678 719.05-3.735 722.324-3.735 726.932-3.735 730.214-4.49735 732.171-6.02204 734.128-7.54673 735.106-9.52338 735.106-11.952 735.106-13.6544 734.639-14.9968 733.705-15.9794 732.771-16.962 731.492-17.7419 729.867-18.319 728.241-18.8961 726.417-19.3626 724.393-19.7183 722.37-20.0741 720.272-20.4924 718.099-20.9731 715.927-21.4538 713.936-22.1173 712.125-22.9638 710.315-23.8102 708.837-25.0171 707.691-26.5846 706.546-28.1521 705.973-30.2189 705.973-32.785 705.973-34.9741 706.578-36.9845 707.79-38.8161 709.001-40.6477 710.835-42.1339 713.293-43.2748 715.751-44.4156 718.844-44.986 722.573-44.986 725.307-44.986 728.065-44.5699 730.849-43.7378 733.632-42.9056 735.964-41.6452 737.845-39.9567L735.792-36.852C733.687-38.2837 731.528-39.3195 729.316-39.9593 727.104-40.5991 724.829-40.919 722.49-40.919 718.218-40.919 715.144-40.1333 713.268-38.5619 711.393-36.9905 710.455-35.0926 710.455-32.868 710.455-31.0368 710.924-29.5899 711.863-28.5274 712.802-27.4648 714.093-26.6419 715.735-26.0588 717.377-25.4756 719.251-24.9875 721.356-24.5946 723.461-24.2016 725.539-23.7862 727.59-23.3483 729.642-22.9104 731.567-22.2857 733.365-21.4743 735.163-20.6629 736.635-19.502 737.783-17.9915 738.931-16.4811 739.505-14.4679 739.505-11.952 739.505-9.55537 738.833-7.41726 737.491-5.53766 736.148-3.65805 734.211-2.22371 731.681-1.23462 729.15-0.245542 726.004 0.249 722.241 0.249ZM772.603 0 772.603-59.677 793.602-59.677C798.536-59.677 802.799-58.8727 806.389-57.2642 809.98-55.6556 812.73-53.3606 814.641-50.379 816.551-47.3975 817.506-43.8292 817.506-39.674 817.506-35.4687 816.55-31.8586 814.637-28.8438 812.724-25.829 809.975-23.5188 806.391-21.9133 802.806-20.3078 798.543-19.505 793.602-19.505L774.18-19.505 777.085-22.493 777.085 0ZM813.823 0 798.333-22.659 802.835-22.659 818.419 0ZM775.425-22.493 775.84-22.078 793.768-22.078C800.499-22.078 805.681-23.6189 809.316-26.7007 812.95-29.7825 814.767-34.1069 814.767-39.674 814.767-45.2004 812.953-49.487 809.326-52.5338 805.699-55.5806 800.513-57.104 793.768-57.104L775.84-57.104 775.425-56.855ZM848.537 0.249C844.122 0.249 840.218-0.71393 836.827-2.63979 833.435-4.56565 830.762-7.25234 828.809-10.6999 826.855-14.1474 825.878-18.0508 825.878-22.41 825.878-26.7908 826.778-30.6659 828.577-34.0352 830.375-37.4045 832.879-40.0719 836.087-42.0375 839.296-44.0032 842.92-44.986 846.96-44.986 850.938-44.986 854.529-44.033 857.734-42.127 860.94-40.2211 863.445-37.5912 865.251-34.2375 867.057-30.8838 867.959-27.0519 867.959-22.742 867.959-22.6313 867.959-22.5068 867.959-22.3685 867.959-22.2302 867.959-21.829 867.959-21.165L827.704-21.165 827.704-24.983 866.465-24.983 863.726-22.078C863.726-26.0732 862.998-29.4356 861.54-32.1651 860.082-34.8946 858.09-37.0359 855.563-38.5892 853.035-40.1424 850.168-40.919 846.96-40.919 843.744-40.919 840.872-40.1424 838.345-38.5892 835.817-37.0359 833.827-34.8985 832.374-32.1768 830.921-29.4551 830.194-26.3378 830.194-22.825L830.194-22.327C830.194-18.6689 830.99-15.4471 832.583-12.6614 834.175-9.8757 836.341-7.70538 839.082-6.15043 841.823-4.59548 844.974-3.818 848.537-3.818 851.237-3.818 853.783-4.31773 856.176-5.31719 858.569-6.31664 860.757-7.97492 862.738-10.292L865.386-7.63989C863.233-4.8542 860.703-2.84297 857.798-1.60618 854.892-0.369393 851.806 0.249 848.537 0.249ZM896.82 0.249C892.57 0.249 888.763-0.714146 885.399-2.64044 882.035-4.56673 879.39-7.23959 877.465-10.659 875.539-14.0784 874.576-17.9954 874.576-22.41 874.576-26.7891 875.535-30.6806 877.452-34.0845 879.368-37.4883 882.014-40.1562 885.387-42.0881 888.761-44.02 892.572-44.986 896.82-44.986 900.206-44.986 903.346-44.3347 906.24-43.0323 909.133-41.7298 911.582-39.6165 913.586-36.6925L910.523-34.279C908.656-36.6531 906.58-38.3395 904.294-39.3381 902.007-40.3367 899.516-40.836 896.82-40.836 893.425-40.836 890.38-40.0698 887.686-38.5373 884.991-37.0048 882.866-34.8537 881.31-32.084 879.754-29.3143 878.975-26.0897 878.975-22.41 878.975-18.6949 879.757-15.446 881.321-12.6633 882.884-9.88067 885.012-7.71079 887.704-6.15367 890.396-4.59656 893.435-3.818 896.82-3.818 899.513-3.818 902-4.32962 904.283-5.35285 906.566-6.37608 908.64-8.0778 910.504-10.458L913.586-8.06786C911.558-5.06084 909.102-2.92294 906.219-1.65416 903.335-0.385388 900.203 0.249 896.82 0.249ZM924.734 0 924.734-63.163 929.133-63.163 929.133 0ZM973.322 0 973.322-10.8211 973.239-12.3203 973.239-28.718C973.239-32.7409 972.185-35.7801 970.079-37.8357 967.972-39.8912 964.876-40.919 960.789-40.919 957.759-40.919 954.988-40.3979 952.475-39.3556 949.962-38.3134 947.574-36.8978 945.312-35.109L943.11-37.9777C945.386-40.2948 948.075-42.0421 951.178-43.2197 954.28-44.3972 957.511-44.986 960.872-44.986 966.252-44.986 970.391-43.5953 973.29-40.8139 976.188-38.0326 977.638-34.0006 977.638-28.718L977.638 0ZM958.133 0.249C954.743 0.249 951.836-0.276667 949.412-1.328 946.988-2.37933 945.124-3.89776 943.82-5.88327 942.517-7.86879 941.865-10.1407 941.865-12.699 941.865-14.9184 942.397-16.9884 943.461-18.9091 944.524-20.8298 946.277-22.3637 948.719-23.511 951.16-24.6583 954.381-25.232 958.382-25.232L975.895-25.232 975.895-21.414 958.382-21.414C953.888-21.414 950.744-20.606 948.952-18.9901 947.16-17.3742 946.264-15.3325 946.264-12.865 946.264-10.0395 947.31-7.79768 949.402-6.13941 951.493-4.48113 954.459-3.652 958.299-3.652 962.098-3.652 965.226-4.50188 967.684-6.20166 970.142-7.90143 972.24-10.5375 973.978-14.11L975.812-11.4929C974.612-7.84696 972.501-4.97849 969.481-2.88749 966.461-0.796497 962.678 0.249 958.133 0.249ZM1047.93-44.986C1051.56-44.986 1054.71-44.2565 1057.36-42.7975 1060.02-41.3385 1062.07-39.2037 1063.52-36.3929 1064.97-33.5821 1065.69-30.1662 1065.69-26.145L1065.69 0 1061.29 0 1061.29-25.979C1061.29-30.8907 1060.11-34.5948 1057.75-37.0913 1055.38-39.5878 1052.05-40.836 1047.77-40.836 1044.48-40.836 1041.63-40.1558 1039.23-38.7954 1036.82-37.4349 1034.97-35.4907 1033.68-32.9627 1032.39-30.4346 1031.75-27.4704 1031.75-24.07L1031.75 0 1027.35 0 1027.35-25.979C1027.35-30.9011 1026.18-34.6078 1023.84-37.099 1021.51-39.5903 1018.19-40.836 1013.9-40.836 1010.56-40.836 1007.7-40.1562 1005.32-38.7967 1002.94-37.4371 1001.11-35.4929 999.819-32.964 998.528-30.4351 997.883-27.4704 997.883-24.07L997.883 0 993.484 0 993.484-44.654 997.8-44.654 997.8-31.042 995.808-32.5736C997.152-36.4357 999.392-39.47 1002.53-41.6764 1005.66-43.8828 1009.51-44.986 1014.07-44.986 1018.68-44.986 1022.52-43.8162 1025.59-41.4767 1028.66-39.1371 1030.58-35.3545 1031.33-30.129L1028.92-30.8202C1030.09-35.2192 1032.32-38.6799 1035.63-41.2024 1038.93-43.7248 1043.03-44.986 1047.93-44.986ZM1098.81 0.249C1094.55 0.249 1090.78-0.713065 1087.51-2.63719 1084.23-4.56132 1081.63-7.23418 1079.71-10.6558 1077.78-14.0774 1076.82-17.9954 1076.82-22.41 1076.82-26.7917 1077.79-30.6678 1079.73-34.0384 1081.67-37.409 1084.29-40.0749 1087.57-42.0363 1090.86-43.9976 1094.6-44.9492 1098.8-44.8913 1103.01-44.9492 1106.79-44.0008 1110.12-42.046 1113.46-40.0912 1116.07-37.4205 1117.97-34.0339 1119.86-30.6473 1120.81-26.7727 1120.81-22.41 1120.81-18.062 1119.86-14.1612 1117.96-10.7076 1116.06-7.25407 1113.44-4.56457 1110.11-2.63914 1106.77-0.713714 1103.01 0.249 1098.81 0.249ZM1099.56-3.818C1102.44-3.818 1105.2-4.59483 1107.86-6.14848 1110.52-7.70214 1112.61-9.89105 1114.13-12.7152 1115.65-15.5394 1116.44-18.7666 1116.49-22.397 1116.44-26.0637 1115.65-29.2891 1114.14-32.073 1112.63-34.857 1110.54-37.0141 1107.88-38.5444 1105.22-40.0747 1102.2-40.8663 1098.82-40.919 1095.49-40.8663 1092.5-40.0717 1089.85-38.5353 1087.2-36.999 1085.1-34.8472 1083.55-32.0801 1081.99-29.313 1081.21-26.0897 1081.21-22.41 1081.21-18.7485 1082-15.5104 1083.56-12.6958 1085.13-9.88111 1087.22-7.68269 1089.83-6.1005 1092.44-4.51831 1095.68-3.75748 1099.56-3.818ZM1143.91 0.249C1140.25 0.249 1136.82-0.307792 1133.62-1.42137 1130.43-2.53496 1127.91-4.11671 1126.06-6.16664L1128.02-9.296C1130.07-7.71986 1132.42-6.399 1135.08-5.3334 1137.75-4.2678 1140.72-3.735 1143.99-3.735 1148.6-3.735 1151.88-4.49735 1153.84-6.02204 1155.79-7.54673 1156.77-9.52338 1156.77-11.952 1156.77-13.6544 1156.31-14.9968 1155.37-15.9794 1154.44-16.962 1153.16-17.7419 1151.53-18.319 1149.91-18.8961 1148.08-19.3626 1146.06-19.7183 1144.04-20.0741 1141.94-20.4924 1139.77-20.9731 1137.59-21.4538 1135.6-22.1173 1133.79-22.9638 1131.98-23.8102 1130.5-25.0171 1129.36-26.5846 1128.21-28.1521 1127.64-30.2189 1127.64-32.785 1127.64-34.9741 1128.25-36.9845 1129.46-38.8161 1130.67-40.6477 1132.5-42.1339 1134.96-43.2748 1137.42-44.4156 1140.51-44.986 1144.24-44.986 1146.97-44.986 1149.73-44.5699 1152.52-43.7378 1155.3-42.9056 1157.63-41.6452 1159.51-39.9567L1157.46-36.852C1155.35-38.2837 1153.19-39.3195 1150.98-39.9593 1148.77-40.5991 1146.5-40.919 1144.16-40.919 1139.88-40.919 1136.81-40.1333 1134.94-38.5619 1133.06-36.9905 1132.12-35.0926 1132.12-32.868 1132.12-31.0368 1132.59-29.5899 1133.53-28.5274 1134.47-27.4648 1135.76-26.6419 1137.4-26.0588 1139.04-25.4756 1140.92-24.9875 1143.02-24.5946 1145.13-24.2016 1147.21-23.7862 1149.26-23.3483 1151.31-22.9104 1153.23-22.2857 1155.03-21.4743 1156.83-20.6629 1158.3-19.502 1159.45-17.9915 1160.6-16.4811 1161.17-14.4679 1161.17-11.952 1161.17-9.55537 1160.5-7.41726 1159.16-5.53766 1157.81-3.65805 1155.88-2.22371 1153.35-1.23462 1150.82-0.245542 1147.67 0.249 1143.91 0.249ZM1191.7 16.351C1189.65 16.351 1187.74 16.0108 1185.97 15.3304 1184.19 14.6499 1182.62 13.4719 1181.24 11.7964L1183.56 8.715C1185.13 10.0906 1186.49 11.0431 1187.65 11.5727 1188.81 12.1022 1190.16 12.367 1191.7 12.367 1193.61 12.367 1195.3 11.8366 1196.77 10.7757 1198.23 9.71489 1199.63 7.68182 1200.97 4.67653L1204.13-2.12298 1204.54-2.78569 1223.5-44.654 1227.8-44.654 1205.15 5.99416C1204.01 8.4928 1202.75 10.5198 1201.38 12.0752 1200 13.6306 1198.51 14.7321 1196.92 15.3796 1195.33 16.0272 1193.59 16.351 1191.7 16.351ZM1205.05-0.664 1185.72-43.077 1187.33-43.077 1205.72-2.65989ZM1273.96 0.332C1269.58 0.332 1265.44-0.450016 1261.54-2.01405 1257.64-3.57808 1254.59-5.73651 1252.38-8.48934L1254.63-11.371C1256.91-9.10666 1259.71-7.2679 1263.05-5.85474 1266.38-4.44158 1269.99-3.735 1273.87-3.735 1277.8-3.735 1280.99-4.2585 1283.45-5.30551 1285.91-6.35253 1287.73-7.74429 1288.89-9.4808 1290.06-11.2173 1290.64-13.1477 1290.64-15.272 1290.64-17.7196 1290.03-19.6835 1288.8-21.1637 1287.58-22.6439 1285.92-23.8344 1283.83-24.7353 1281.73-25.6362 1279.45-26.3869 1276.96-26.9873 1274.48-27.5878 1271.86-28.2431 1269.11-28.9534 1266.37-29.6636 1263.86-30.5773 1261.6-31.6943 1259.33-32.8114 1257.51-34.3894 1256.12-36.4286 1254.73-38.4677 1254.04-41.0988 1254.04-44.322 1254.04-47.0515 1254.76-49.6089 1256.22-51.9943 1257.67-54.3797 1259.94-56.3118 1263.01-57.7907 1266.08-59.2696 1269.98-60.009 1274.7-60.009 1277.95-60.009 1281.15-59.5108 1284.31-58.5143 1287.47-57.5179 1290.27-56.0578 1292.72-54.1341L1290.9-50.879C1288.14-52.6393 1285.4-53.9232 1282.65-54.7307 1279.9-55.5382 1277.28-55.942 1274.79-55.942 1271.03-55.942 1267.93-55.4021 1265.48-54.3222 1263.03-53.2423 1261.25-51.8341 1260.12-50.0976 1259-48.3611 1258.44-46.4359 1258.44-44.322 1258.44-41.7654 1259.05-39.7436 1260.28-38.2565 1261.51-36.7694 1263.17-35.5759 1265.27-34.6758 1267.36-33.7758 1269.67-33.042 1272.2-32.4744 1274.73-31.9068 1277.34-31.2514 1280.04-30.5083 1282.74-29.7652 1285.23-28.8202 1287.49-27.6734 1289.76-26.5265 1291.58-24.9668 1292.96-22.9942 1294.35-21.0217 1295.04-18.4753 1295.04-15.355 1295.04-12.5996 1294.29-10.016 1292.79-7.60423 1291.29-5.19247 1288.97-3.26683 1285.83-1.8273 1282.69-0.387766 1278.74 0.332 1273.96 0.332ZM1323.97 0.249C1319.7 0.249 1315.94-0.713065 1312.66-2.63719 1309.39-4.56132 1306.79-7.23418 1304.86-10.6558 1302.94-14.0774 1301.97-17.9954 1301.97-22.41 1301.97-26.7917 1302.94-30.6678 1304.89-34.0384 1306.83-37.409 1309.44-40.0749 1312.73-42.0363 1316.02-43.9976 1319.76-44.9492 1323.95-44.8913 1328.17-44.9492 1331.94-44.0008 1335.28-42.046 1338.61-40.0912 1341.23-37.4205 1343.12-34.0339 1345.02-30.6473 1345.96-26.7727 1345.96-22.41 1345.96-18.062 1345.01-14.1612 1343.11-10.7076 1341.21-7.25407 1338.6-4.56457 1335.26-2.63914 1331.93-0.713714 1328.16 0.249 1323.97 0.249ZM1324.71-3.818C1327.59-3.818 1330.36-4.59483 1333.02-6.14848 1335.68-7.70214 1337.77-9.89105 1339.29-12.7152 1340.81-15.5394 1341.59-18.7666 1341.65-22.397 1341.59-26.0637 1340.81-29.2891 1339.3-32.073 1337.79-34.857 1335.7-37.0141 1333.04-38.5444 1330.37-40.0747 1327.35-40.8663 1323.98-40.919 1320.65-40.8663 1317.66-40.0717 1315.01-38.5353 1312.36-36.999 1310.26-34.8472 1308.7-32.0801 1307.15-29.313 1306.37-26.0897 1306.37-22.41 1306.37-18.7485 1307.15-15.5104 1308.72-12.6958 1310.29-9.88111 1312.38-7.68269 1314.99-6.1005 1317.6-4.51831 1320.84-3.75748 1324.71-3.818ZM1357.86 0 1357.86-63.163 1362.26-63.163 1362.26 0ZM1379.06 0 1379.06-44.654 1383.37-44.654 1383.46 0ZM1381.21-54.365C1380.25-54.365 1379.42-54.7195 1378.71-55.4284 1378-56.1374 1377.65-56.9449 1377.65-57.851 1377.65-58.8271 1378-59.6521 1378.71-60.3261 1379.42-61 1380.25-61.337 1381.21-61.337 1382.23-61.337 1383.08-60.9961 1383.76-60.3144 1384.44-59.6327 1384.78-58.8392 1384.78-57.934 1384.78-56.989 1384.44-56.1579 1383.76-55.4408 1383.08-54.7236 1382.23-54.365 1381.21-54.365ZM1417.6 0.249C1413.35 0.249 1409.54-0.714146 1406.18-2.64044 1402.82-4.56673 1400.17-7.23959 1398.25-10.659 1396.32-14.0784 1395.36-17.9954 1395.36-22.41 1395.36-26.7891 1396.32-30.6806 1398.23-34.0845 1400.15-37.4883 1402.79-40.1562 1406.17-42.0881 1409.54-44.02 1413.35-44.986 1417.6-44.986 1420.99-44.986 1424.13-44.3347 1427.02-43.0323 1429.91-41.7298 1432.36-39.6165 1434.37-36.6925L1431.3-34.279C1429.44-36.6531 1427.36-38.3395 1425.07-39.3381 1422.79-40.3367 1420.3-40.836 1417.6-40.836 1414.21-40.836 1411.16-40.0698 1408.47-38.5373 1405.77-37.0048 1403.65-34.8537 1402.09-32.084 1400.53-29.3143 1399.76-26.0897 1399.76-22.41 1399.76-18.6949 1400.54-15.446 1402.1-12.6633 1403.67-9.88067 1405.79-7.71079 1408.49-6.15367 1411.18-4.59656 1414.22-3.818 1417.6-3.818 1420.29-3.818 1422.78-4.32962 1425.06-5.35285 1427.35-6.37608 1429.42-8.0778 1431.28-10.458L1434.37-8.06786C1432.34-5.06084 1429.88-2.92294 1427-1.65416 1424.12-0.385388 1420.98 0.249 1417.6 0.249ZM1445.52 0 1445.52-44.654 1449.83-44.654 1449.91 0ZM1447.67-54.365C1446.71-54.365 1445.88-54.7195 1445.17-55.4284 1444.46-56.1374 1444.1-56.9449 1444.1-57.851 1444.1-58.8271 1444.46-59.6521 1445.17-60.3261 1445.88-61 1446.71-61.337 1447.67-61.337 1448.69-61.337 1449.54-60.9961 1450.22-60.3144 1450.9-59.6327 1451.24-58.8392 1451.24-57.934 1451.24-56.989 1450.9-56.1579 1450.22-55.4408 1449.54-54.7236 1448.69-54.365 1447.67-54.365ZM1479.25 0.249C1475.46 0.249 1472.55-0.829135 1470.51-2.98541 1468.48-5.14168 1467.46-8.01987 1467.46-11.62L1467.46-54.116 1471.86-54.116 1471.86-12.035C1471.86-9.2692 1472.5-7.19441 1473.79-5.81065 1475.07-4.42688 1476.97-3.735 1479.49-3.735 1482.09-3.735 1484.45-4.62033 1486.59-6.391L1488.71-3.43153C1487.4-2.04301 1485.92-1.08246 1484.26-0.549875 1482.61-0.0172917 1480.93 0.249 1479.25 0.249ZM1459.33-40.67 1459.33-44.654 1486.05-44.654 1486.05-40.67ZM1517.55 0.249C1513.68 0.249 1510.36-0.460823 1507.58-1.88047 1504.79-3.30011 1502.65-5.41942 1501.14-8.2384 1499.63-11.0574 1498.87-14.5086 1498.87-18.592L1498.87-44.654 1503.27-44.654 1503.27-18.758C1503.27-13.7979 1504.52-10.0679 1507.02-7.56791 1509.52-5.06797 1513.06-3.818 1517.63-3.818 1520.89-3.818 1523.72-4.51075 1526.1-5.89624 1528.47-7.28174 1530.3-9.24693 1531.57-11.7918 1532.85-14.3367 1533.48-17.2951 1533.48-20.667L1533.48-44.654 1537.88-44.654 1537.88 0 1533.57 0 1533.57-13.695 1535.56-12.131C1534.25-8.22565 1532.02-5.18599 1528.89-3.01199 1525.76-0.837997 1521.98 0.249 1517.55 0.249ZM1571.38 0.249C1567.23 0.249 1563.51-0.712849 1560.21-2.63655 1556.9-4.56024 1554.29-7.2331 1552.36-10.6551 1550.44-14.0771 1549.47-17.9954 1549.47-22.41 1549.47-26.8462 1550.43-30.7392 1552.35-34.089 1554.27-37.4388 1556.88-40.0925 1560.19-42.0499 1563.5-44.0073 1567.23-44.986 1571.38-44.986 1575.42-44.986 1579.05-44.0337 1582.28-42.129 1585.51-40.2243 1588.06-37.5815 1589.92-34.2005 1591.78-30.8196 1592.71-26.8894 1592.72-22.41 1592.71-17.9539 1591.78-13.9991 1589.91-10.5455 1588.04-7.09196 1585.49-4.42948 1582.27-2.55809 1579.04-0.686695 1575.42 0.249 1571.38 0.249ZM1571.47-3.818C1574.84-3.818 1577.85-4.59461 1580.48-6.14784 1583.11-7.70106 1585.2-9.88997 1586.74-12.7146 1588.29-15.5392 1589.06-18.771 1589.06-22.41 1589.06-26.0698 1588.3-29.2895 1586.76-32.0691 1585.22-34.8488 1583.14-37.0048 1580.49-38.5373 1577.85-40.0698 1574.84-40.836 1571.47-40.836 1568.14-40.836 1565.15-40.0685 1562.51-38.5334 1559.86-36.9983 1557.76-34.8472 1556.2-32.0801 1554.65-29.313 1553.87-26.0897 1553.87-22.41 1553.87-18.7485 1554.65-15.5121 1556.22-12.7009 1557.78-9.88975 1559.88-7.70646 1562.52-6.15108 1565.16-4.59569 1568.14-3.818 1571.47-3.818ZM1589.15 0 1589.15-16.0177 1589.89-22.4684 1589.06-28.9372 1589.06-63.163 1593.46-63.163 1593.46 0ZM1627.7 0.249C1623.29 0.249 1619.38-0.71393 1615.99-2.63979 1612.6-4.56565 1609.93-7.25234 1607.98-10.6999 1606.02-14.1474 1605.04-18.0508 1605.05-22.41 1605.04-26.7908 1605.94-30.6659 1607.74-34.0352 1609.54-37.4045 1612.05-40.0719 1615.25-42.0375 1618.46-44.0032 1622.09-44.986 1626.13-44.986 1630.1-44.986 1633.7-44.033 1636.9-42.127 1640.11-40.2211 1642.61-37.5912 1644.42-34.2375 1646.22-30.8838 1647.13-27.0519 1647.13-22.742 1647.13-22.6313 1647.13-22.5068 1647.13-22.3685 1647.13-22.2302 1647.13-21.829 1647.13-21.165L1606.87-21.165 1606.87-24.983 1645.63-24.983 1642.89-22.078C1642.89-26.0732 1642.16-29.4356 1640.71-32.1651 1639.25-34.8946 1637.26-37.0359 1634.73-38.5892 1632.2-40.1424 1629.33-40.919 1626.13-40.919 1622.91-40.919 1620.04-40.1424 1617.51-38.5892 1614.98-37.0359 1612.99-34.8985 1611.54-32.1768 1610.09-29.4551 1609.36-26.3378 1609.36-22.825L1609.36-22.327C1609.36-18.6689 1610.16-15.4471 1611.75-12.6614 1613.34-9.8757 1615.51-7.70538 1618.25-6.15043 1620.99-4.59548 1624.14-3.818 1627.7-3.818 1630.4-3.818 1632.95-4.31773 1635.34-5.31719 1637.74-6.31664 1639.92-7.97492 1641.9-10.292L1644.55-7.63989C1642.4-4.8542 1639.87-2.84297 1636.96-1.60618 1634.06-0.369393 1630.97 0.249 1627.7 0.249ZM1669.84 0.249C1666.19 0.249 1662.76-0.307792 1659.56-1.42137 1656.36-2.53496 1653.84-4.11671 1652-6.16664L1653.96-9.296C1656-7.71986 1658.36-6.399 1661.02-5.3334 1663.68-4.2678 1666.65-3.735 1669.93-3.735 1674.54-3.735 1677.82-4.49735 1679.78-6.02204 1681.73-7.54673 1682.71-9.52338 1682.71-11.952 1682.71-13.6544 1682.24-14.9968 1681.31-15.9794 1680.38-16.962 1679.1-17.7419 1677.47-18.319 1675.84-18.8961 1674.02-19.3626 1672-19.7183 1669.97-20.0741 1667.88-20.4924 1665.7-20.9731 1663.53-21.4538 1661.54-22.1173 1659.73-22.9638 1657.92-23.8102 1656.44-25.0171 1655.3-26.5846 1654.15-28.1521 1653.58-30.2189 1653.58-32.785 1653.58-34.9741 1654.18-36.9845 1655.39-38.8161 1656.6-40.6477 1658.44-42.1339 1660.9-43.2748 1663.35-44.4156 1666.45-44.986 1670.18-44.986 1672.91-44.986 1675.67-44.5699 1678.45-43.7378 1681.24-42.9056 1683.57-41.6452 1685.45-39.9567L1683.4-36.852C1681.29-38.2837 1679.13-39.3195 1676.92-39.9593 1674.71-40.5991 1672.43-40.919 1670.09-40.919 1665.82-40.919 1662.75-40.1333 1660.87-38.5619 1659-36.9905 1658.06-35.0926 1658.06-32.868 1658.06-31.0368 1658.53-29.5899 1659.47-28.5274 1660.41-27.4648 1661.7-26.6419 1663.34-26.0588 1664.98-25.4756 1666.85-24.9875 1668.96-24.5946 1671.06-24.2016 1673.14-23.7862 1675.19-23.3483 1677.25-22.9104 1679.17-22.2857 1680.97-21.4743 1682.77-20.6629 1684.24-19.502 1685.39-17.9915 1686.53-16.4811 1687.11-14.4679 1687.11-11.952 1687.11-9.55537 1686.44-7.41726 1685.09-5.53766 1683.75-3.65805 1681.82-2.22371 1679.28-1.23462 1676.75-0.245542 1673.61 0.249 1669.84 0.249Z" fill="#FFFFFF" transform="matrix(1 0 0 1 56.3613 111)"/></g></g><text fill="#FFFFFF" font-family="Montserrat ExtraLight,Montserrat ExtraLight_MSFontService,sans-serif" font-weight="700" font-size="83" transform="matrix(1 0 0 1 348.608 719)">Peticiones, Quejas Reclamos y Solicitudes</text></g></svg>